# ProBuilder 4.5.2
# https://unity3d.com/unity/features/worldbuilding/probuilder
# 12/25/2021 12:15:45 PM

mtllib ./Arch.mtl
o Arch

g Arch
v -0.49 -0.2449999 -0.05499998
v -0.3464823 0.1014824 -0.05499998
v -0.49 -0.2449999 0.05500001
v -0.3464823 0.1014824 0.05500001
v -0.3040559 0.05905601 -0.05499998
v -0.43 -0.2449999 -0.05499998
v -0.3040559 0.05905601 0.05500001
v -0.43 -0.2449999 0.05500001
v 2.980232E-08 0.2450001 -0.05499998
v 2.980232E-08 0.2450001 0.05500001
v 2.980232E-08 0.1850001 -0.05499998
v 2.980232E-08 0.1850001 0.05500001
v 0.3464823 0.1014824 -0.05499998
v 0.3464823 0.1014824 0.05500001
v 0.3040559 0.05905601 -0.05499998
v 0.3040559 0.05905601 0.05500001
v 0.49 -0.245 -0.05499998
v 0.49 -0.245 0.05500001
v 0.43 -0.245 -0.05499998
v 0.43 -0.245 0.05500001

vt -0.05499998 -0.4138653
vt -0.05499998 -0.0388355
vt 0.05500001 -0.4138653
vt 0.05500001 -0.0388355
vt 0.05499998 -0.06179652
vt 0.05499998 -0.3909043
vt -0.05500001 -0.06179652
vt -0.05500001 -0.3909043
vt -0.49 0.05500001
vt -0.43 0.05500001
vt -0.49 -0.05499998
vt -0.43 -0.05499998
vt 0.2812723 -0.05499998
vt -0.09375749 -0.05499998
vt 0.2812723 0.05500001
vt -0.09375749 0.05500001
vt 0.07079648 -0.05499998
vt -0.2583113 -0.05499998
vt 0.07079648 0.05500001
vt -0.2583113 0.05500001
vt 0.09375745 -0.05499998
vt -0.2812723 -0.05499998
vt 0.09375745 0.05500001
vt -0.2812723 0.05500001
vt 0.2583113 -0.05499998
vt -0.07079645 -0.05499998
vt 0.2583113 0.05500001
vt -0.07079645 0.05500001
vt 0.05499998 -0.03883548
vt 0.05499998 -0.4138653
vt -0.05500001 -0.03883548
vt -0.05500001 -0.4138653
vt -0.05499998 -0.3909043
vt -0.05499998 -0.06179649
vt 0.05500001 -0.3909043
vt 0.05500001 -0.06179649
vt 0.43 0.05500001
vt 0.49 0.05500001
vt 0.43 -0.05499998
vt 0.49 -0.05499998
vt -0.49 -0.2449999
vt -0.3464823 0.1014824
vt -0.43 -0.2449999
vt -0.3040559 0.05905601
vt 0.3464823 0.1014824
vt 0.49 -0.2449999
vt 0.3040559 0.05905601
vt 0.43 -0.2449999
vt 2.980232E-08 0.2450001
vt 2.980232E-08 0.1850001

vn -0.9238796 0.3826834 0
vn 0.9238796 -0.3826834 0
vn 0 -1 0
vn -0.3826834 0.9238796 0
vn 0.3826834 -0.9238796 0
vn 0.3826834 0.9238795 0
vn -0.3826835 -0.9238796 0
vn 0.9238796 0.3826833 0
vn -0.9238796 -0.3826833 0
vn 0 0 1
vn 0 0 -1

usemtl ProBuilderDefault
f 3/3/1 4/4/1 2/2/1 1/1/1
f 7/7/2 8/8/2 6/6/2 5/5/2
f 1/11/3 6/12/3 8/10/3 3/9/3
f 4/15/4 10/16/4 9/14/4 2/13/4
f 12/19/5 7/20/5 5/18/5 11/17/5
f 10/23/6 14/24/6 13/22/6 9/21/6
f 16/27/7 12/28/7 11/26/7 15/25/7
f 14/31/8 18/32/8 17/30/8 13/29/8
f 20/35/9 16/36/9 15/34/9 19/33/9
f 19/39/3 17/40/3 18/38/3 20/37/3
f 8/43/10 7/44/10 4/42/10 3/41/10
f 5/47/11 6/48/11 1/46/11 2/45/11
f 7/44/10 12/50/10 10/49/10 4/42/10
f 11/50/11 5/47/11 2/45/11 9/49/11
f 12/50/10 16/47/10 14/45/10 10/49/10
f 15/44/11 11/50/11 9/49/11 13/42/11
f 16/47/10 20/48/10 18/46/10 14/45/10
f 19/43/11 15/44/11 13/42/11 17/41/11

